<?xml version="1.0" encoding="UTF-8"?>
<svg width="200px" height="auto" viewBox="0 0 311 311" version="1.1" xmlns="http://www.w3.org/2000/svg" xmlns:xlink="http://www.w3.org/1999/xlink">
    <!-- Generator: Sketch 42 (36781) - http://www.bohemiancoding.com/sketch -->
    <title>Group 2</title>
    <desc>Created with Sketch.</desc>
    <defs></defs>
    <g id="Page-1" stroke="none" stroke-width="1" fill="none" fill-rule="evenodd">
        <g id="Group-2" transform="translate(1.000000, 1.000000)">
            <circle id="Oval-Copy-2" stroke="#979797" fill="#000000" cx="154.5" cy="154.5" r="154.5"></circle>
            <g id="Group-Copy-4" transform="translate(91.000000, 115.000000)" fill="#FFFFFF">
                <path d="M121.995264,52.3192184 C110.443535,52.3192184 104.122777,48.1668995 99.1097628,45.0526603 C94.7506197,42.1460371 91.0453481,39.8622617 83.6348049,39.8622617 C76.2242617,39.8622617 72.5189901,42.1460371 68.159847,45.0526603 C63.1468324,48.3745155 56.826075,52.3192184 45.2743458,52.3192184 C33.7226167,52.3192184 27.4018592,48.1668995 22.3888447,45.0526603 C18.0297016,42.1460371 14.32443,39.8622617 6.91388676,39.8622617 C3.20861515,39.8622617 0.37517215,37.1632544 0.37517215,33.6337833 C0.37517215,30.1043122 3.20861515,27.4053049 6.91388676,27.4053049 C18.4656159,27.4053049 24.7863734,31.5576238 29.7993879,34.671863 C34.158531,37.5784863 37.8638026,39.8622617 45.2743458,39.8622617 C52.9028462,39.8622617 56.3901607,37.5784863 60.7493037,34.671863 C65.7623183,31.3500079 72.0830757,27.4053049 83.6348049,27.4053049 C95.186534,27.4053049 101.507292,31.5576238 106.520306,34.671863 C110.879449,37.5784863 114.584721,39.8622617 121.995264,39.8622617 C125.700536,39.8622617 128.533979,42.561269 128.533979,46.0907401 C128.533979,49.6202111 125.700536,52.3192184 121.995264,52.3192184 Z" id="Shape"></path>
                <path d="M121.995264,25.3291454 C110.443535,25.3291454 104.122777,21.1768265 99.1097628,18.0625873 C94.7506197,15.1559641 91.0453481,12.8721887 83.6348049,12.8721887 C76.2242617,12.8721887 72.5189901,15.1559641 68.159847,18.0625873 C63.1468324,21.3844425 56.826075,25.3291454 45.2743458,25.3291454 C33.7226167,25.3291454 27.4018592,21.1768265 22.3888447,18.0625873 C18.0297016,15.1559641 14.32443,12.8721887 6.91388676,12.8721887 C3.20861515,12.8721887 0.37517215,10.1731814 0.37517215,6.64371028 C0.37517215,3.11423919 3.20861515,0.415231892 6.91388676,0.415231892 C18.4656159,0.415231892 24.7863734,4.56755082 29.7993879,7.68179001 C34.158531,10.5884133 37.8638026,12.8721887 45.2743458,12.8721887 C52.9028462,12.8721887 56.3901607,10.5884133 60.7493037,7.68179001 C65.7623183,4.35993487 72.0830757,0.415231892 83.6348049,0.415231892 C95.186534,0.415231892 101.507292,4.56755082 106.520306,7.68179001 C110.879449,10.5884133 114.584721,12.8721887 121.995264,12.8721887 C125.700536,12.8721887 128.533979,15.571196 128.533979,19.1006671 C128.533979,22.6301381 125.700536,25.3291454 121.995264,25.3291454 Z" id="Shape"></path>
                <path d="M121.995264,79.3092914 C110.443535,79.3092914 104.122777,75.1569725 99.1097628,72.0427333 C94.7506197,69.1361101 91.0453481,66.8523347 83.6348049,66.8523347 C76.2242617,66.8523347 72.5189901,69.1361101 68.159847,72.0427333 C63.1468324,75.3645885 56.826075,79.3092914 45.2743458,79.3092914 C33.7226167,79.3092914 27.4018592,75.1569725 22.3888447,72.0427333 C18.0297016,69.1361101 14.32443,66.8523347 6.91388676,66.8523347 C3.20861515,66.8523347 0.37517215,64.1533274 0.37517215,60.6238563 C0.37517215,57.0943852 3.20861515,54.3953779 6.91388676,54.3953779 C18.4656159,54.3953779 24.7863734,58.5476968 29.7993879,61.661936 C34.158531,64.5685593 37.8638026,66.8523347 45.2743458,66.8523347 C52.9028462,66.8523347 56.3901607,64.5685593 60.7493037,61.661936 C65.7623183,58.3400809 72.0830757,54.3953779 83.6348049,54.3953779 C95.186534,54.3953779 101.507292,58.5476968 106.520306,61.661936 C110.879449,64.5685593 114.584721,66.8523347 121.995264,66.8523347 C125.700536,66.8523347 128.533979,69.551342 128.533979,73.0808131 C128.533979,76.6102841 125.700536,79.3092914 121.995264,79.3092914 Z" id="Shape"></path>
            </g>
        </g>
    </g>
</svg>
